<?xml version="1.0" encoding="utf-8"?>
<!-- Generator: Adobe Illustrator 19.0.0, SVG Export Plug-In . SVG Version: 6.00 Build 0)  -->
<svg version="1.1" id="Layer_1" xmlns="http://www.w3.org/2000/svg" xmlns:xlink="http://www.w3.org/1999/xlink" x="0px" y="0px"
	 viewBox="-281 373 48 48" style="enable-background:new -281 373 48 48;" xml:space="preserve">
<style type="text/css">
	.st0{fill:#6A6A6D;}
</style>
<g id="Layer_1_1_">
</g>
<g id="medium-box">
</g>
<g id="minuse">
</g>
<g id="timer">
</g>
<g id="drawer-2">
</g>
<g id="trash-box">
</g>
<g id="book-label">
</g>
<g id="folder-label">
</g>
<g id="page-back">
</g>
<g id="close-page_1_">
</g>
<g id="pages">
</g>
<g id="list">
</g>
<g id="wave">
</g>
<g id="close-page">
</g>
<g id="add-page">
</g>
<g id="code">
</g>
<g id="shift-mode">
</g>
<g id="bookmarks_1_">
</g>
<g id="bookmarks">
</g>
<g id="open-pages">
</g>
<g id="note">
</g>
<g id="locater">
</g>
<g id="navigater">
</g>
<g id="alarm">
</g>
<g id="clock">
</g>
<g id="time-3">
</g>
<g id="time-1">
</g>
<g id="time">
</g>
<g id="downloads">
</g>
<g id="uploads">
</g>
<g id="drawer-1">
</g>
<g id="mail_drawer">
</g>
<g id="drawer">
</g>
<g id="mail_1_">
</g>
<g id="mail-open">
</g>
<g id="open">
</g>
<g id="card">
</g>
<g id="mails">
</g>
<g id="mail">
</g>
<g id="drag-l-t">
</g>
<g id="comment">
</g>
<g id="folder">
</g>
<g id="trash">
</g>
<g id="report-flag">
</g>
<g id="setting-roll">
</g>
<g id="spects">
</g>
<g id="search_1_">
	<g>
		<path class="st0" d="M-264,405c-8.3,0-15-6.7-15-15c0-8.3,6.7-15,15-15c8.3,0,15,6.7,15,15C-249,398.3-255.7,405-264,405z
			 M-264,377c-7.2,0-13,5.8-13,13s5.8,13,13,13s13-5.8,13-13S-256.8,377-264,377z"/>
	</g>
	<g>
		<path class="st0" d="M-240.8,416.5c-0.5,0-1-0.2-1.4-0.6l-13.7-13.5c-0.4-0.4-0.4-1,0-1.4c0.4-0.4,1-0.4,1.4,0l13.7,13.5l1.4-1.4
			l-13.6-13.6c-0.4-0.4-0.4-1,0-1.4s1-0.4,1.4,0l13.6,13.6c0.4,0.4,0.6,0.9,0.6,1.4c0,0.5-0.2,1-0.6,1.4l-1.4,1.4
			C-239.8,416.3-240.3,416.5-240.8,416.5z"/>
	</g>
</g>
<g id="game-2">
</g>
<g id="game">
</g>
<g id="unloack">
</g>
<g id="loack">
</g>
<g id="settings-ui">
</g>
<g id="abacuse">
</g>
<g id="browser-check-box">
</g>
<g id="browser-reload">
</g>
<g id="browser-check">
</g>
<g id="browser-close">
</g>
<g id="browser-inus">
</g>
<g id="browser-add">
</g>
<g id="flowtting">
</g>
<g id="drag">
</g>
<g id="popup">
</g>
<g id="latter">
</g>
<g id="details">
</g>
<g id="blocks">
</g>
<g id="locate">
</g>
<g id="parabolla">
</g>
<g id="check-box">
</g>
<g id="slide-nav">
</g>
<g id="share">
</g>
<g id="profile">
</g>
<g id="settings">
</g>
<g id="expand">
</g>
<g id="image">
</g>
<g id="pause">
</g>
<g id="player">
</g>
<g id="imager">
</g>
<g id="slider">
</g>
<g id="slide-count">
</g>
<g id="progress-bar">
</g>
<g id="graph">
</g>
<g id="statistics">
</g>
<g id="cloud-reload">
</g>
<g id="cloud-down">
</g>
<g id="cloud-up">
</g>
<g id="cloud">
</g>
<g id="masonary">
</g>
<g id="column">
</g>
<g id="grid-block">
</g>
<g id="horizontal">
</g>
<g id="_x35_-column">
</g>
<g id="_x31_-column">
</g>
<g id="_x33_-column">
</g>
<g id="sidebar_1_">
</g>
<g id="favorite">
</g>
<g id="load">
</g>
<g id="search-list">
</g>
<g id="search">
</g>
<g id="browser_1_">
</g>
<g id="change-mode">
</g>
<g id="tick">
</g>
</svg>
